<mxfile host="app.diagrams.net" agent="Mozilla/5.0 (Windows NT 10.0; Win64; x64; rv:137.0) Gecko/20100101 Firefox/137.0" version="27.0.1">
  <diagram name="Page-1" id="Ba9MUMpigtFc8VhYnScw">
    <mxGraphModel dx="974" dy="652" grid="1" gridSize="10" guides="1" tooltips="1" connect="1" arrows="1" fold="1" page="1" pageScale="1" pageWidth="1654" pageHeight="2336" math="0" shadow="0">
      <root>
        <mxCell id="0" />
        <mxCell id="1" parent="0" />
        <mxCell id="-R15y1pQ6oSKtwiCRdAU-32" value="" style="endArrow=none;html=1;rounded=0;fontSize=12;startSize=8;endSize=8;curved=1;entryX=0.489;entryY=1.016;entryDx=0;entryDy=0;entryPerimeter=0;" edge="1" parent="1" target="-R15y1pQ6oSKtwiCRdAU-3">
          <mxGeometry width="50" height="50" relative="1" as="geometry">
            <mxPoint x="370" y="480" as="sourcePoint" />
            <mxPoint x="390" y="300" as="targetPoint" />
          </mxGeometry>
        </mxCell>
        <mxCell id="-R15y1pQ6oSKtwiCRdAU-17" value="" style="endArrow=none;html=1;rounded=0;fontSize=12;startSize=8;endSize=8;curved=1;entryX=0.5;entryY=1;entryDx=0;entryDy=0;" edge="1" parent="1" target="-R15y1pQ6oSKtwiCRdAU-2">
          <mxGeometry width="50" height="50" relative="1" as="geometry">
            <mxPoint x="240" y="480" as="sourcePoint" />
            <mxPoint x="270" y="390" as="targetPoint" />
          </mxGeometry>
        </mxCell>
        <mxCell id="-R15y1pQ6oSKtwiCRdAU-1" value="ODM" style="rounded=1;whiteSpace=wrap;html=1;" vertex="1" parent="1">
          <mxGeometry x="310" y="130" width="120" height="60" as="geometry" />
        </mxCell>
        <mxCell id="-R15y1pQ6oSKtwiCRdAU-2" value="Physical Infrastructure" style="rounded=0;whiteSpace=wrap;html=1;" vertex="1" parent="1">
          <mxGeometry x="180" y="230" width="120" height="60" as="geometry" />
        </mxCell>
        <mxCell id="-R15y1pQ6oSKtwiCRdAU-3" value="Environmental Conditions" style="rounded=0;whiteSpace=wrap;html=1;" vertex="1" parent="1">
          <mxGeometry x="310" y="230" width="120" height="60" as="geometry" />
        </mxCell>
        <mxCell id="-R15y1pQ6oSKtwiCRdAU-4" value="Operational Characteristics" style="rounded=0;whiteSpace=wrap;html=1;" vertex="1" parent="1">
          <mxGeometry x="180" y="320" width="80" height="40" as="geometry" />
        </mxCell>
        <mxCell id="-R15y1pQ6oSKtwiCRdAU-5" value="Surrounding Infrastructure" style="rounded=0;whiteSpace=wrap;html=1;" vertex="1" parent="1">
          <mxGeometry x="310" y="320" width="90" height="40" as="geometry" />
        </mxCell>
        <mxCell id="-R15y1pQ6oSKtwiCRdAU-6" value="Dynamic Elements" style="rounded=0;whiteSpace=wrap;html=1;" vertex="1" parent="1">
          <mxGeometry x="440" y="230" width="120" height="60" as="geometry" />
        </mxCell>
        <mxCell id="-R15y1pQ6oSKtwiCRdAU-7" value="" style="endArrow=none;html=1;rounded=0;fontSize=12;startSize=8;endSize=8;curved=1;entryX=0.5;entryY=1;entryDx=0;entryDy=0;exitX=0.5;exitY=0;exitDx=0;exitDy=0;" edge="1" parent="1" source="-R15y1pQ6oSKtwiCRdAU-3" target="-R15y1pQ6oSKtwiCRdAU-1">
          <mxGeometry width="50" height="50" relative="1" as="geometry">
            <mxPoint x="330" y="360" as="sourcePoint" />
            <mxPoint x="380" y="310" as="targetPoint" />
          </mxGeometry>
        </mxCell>
        <mxCell id="-R15y1pQ6oSKtwiCRdAU-8" value="" style="endArrow=none;html=1;rounded=0;fontSize=12;startSize=8;endSize=8;curved=1;" edge="1" parent="1">
          <mxGeometry width="50" height="50" relative="1" as="geometry">
            <mxPoint x="240" y="210" as="sourcePoint" />
            <mxPoint x="500" y="210" as="targetPoint" />
          </mxGeometry>
        </mxCell>
        <mxCell id="-R15y1pQ6oSKtwiCRdAU-9" value="" style="endArrow=none;html=1;rounded=0;fontSize=12;startSize=8;endSize=8;curved=1;exitX=0.5;exitY=0;exitDx=0;exitDy=0;" edge="1" parent="1" source="-R15y1pQ6oSKtwiCRdAU-2">
          <mxGeometry width="50" height="50" relative="1" as="geometry">
            <mxPoint x="330" y="360" as="sourcePoint" />
            <mxPoint x="240" y="210" as="targetPoint" />
          </mxGeometry>
        </mxCell>
        <mxCell id="-R15y1pQ6oSKtwiCRdAU-10" value="" style="endArrow=none;html=1;rounded=0;fontSize=12;startSize=8;endSize=8;curved=1;exitX=0.5;exitY=0;exitDx=0;exitDy=0;" edge="1" parent="1">
          <mxGeometry width="50" height="50" relative="1" as="geometry">
            <mxPoint x="499.83000000000004" y="230" as="sourcePoint" />
            <mxPoint x="499.83000000000004" y="210" as="targetPoint" />
          </mxGeometry>
        </mxCell>
        <mxCell id="-R15y1pQ6oSKtwiCRdAU-11" value="" style="endArrow=none;html=1;rounded=0;fontSize=12;startSize=8;endSize=8;curved=1;entryX=0;entryY=0;entryDx=0;entryDy=0;" edge="1" parent="1" target="-R15y1pQ6oSKtwiCRdAU-4">
          <mxGeometry width="50" height="50" relative="1" as="geometry">
            <mxPoint x="160" y="320" as="sourcePoint" />
            <mxPoint x="210" y="310" as="targetPoint" />
          </mxGeometry>
        </mxCell>
        <mxCell id="-R15y1pQ6oSKtwiCRdAU-12" value="&lt;div style=&quot;line-height: 80%;&quot;&gt;&lt;div&gt;&lt;font style=&quot;font-size: 8px; line-height: 80%;&quot;&gt;Station&lt;/font&gt;&lt;/div&gt;&lt;div&gt;&lt;font style=&quot;font-size: 8px; line-height: 80%;&quot;&gt;(2)&lt;/font&gt;&lt;/div&gt;&lt;/div&gt;" style="text;html=1;align=right;verticalAlign=middle;whiteSpace=wrap;rounded=0;" vertex="1" parent="1">
          <mxGeometry x="100" y="303" width="60" height="30" as="geometry" />
        </mxCell>
        <mxCell id="-R15y1pQ6oSKtwiCRdAU-13" value="" style="endArrow=none;html=1;rounded=0;fontSize=12;startSize=8;endSize=8;curved=1;entryX=0;entryY=0;entryDx=0;entryDy=0;" edge="1" parent="1">
          <mxGeometry width="50" height="50" relative="1" as="geometry">
            <mxPoint x="160" y="339.83" as="sourcePoint" />
            <mxPoint x="180" y="339.83" as="targetPoint" />
          </mxGeometry>
        </mxCell>
        <mxCell id="-R15y1pQ6oSKtwiCRdAU-14" value="&lt;div style=&quot;line-height: 80%;&quot;&gt;&lt;div&gt;&lt;font style=&quot;font-size: 8px; line-height: 80%;&quot;&gt;Level Crossing&lt;/font&gt;&lt;/div&gt;&lt;div&gt;&lt;font style=&quot;font-size: 8px; line-height: 80%;&quot;&gt;(0, n/a)&lt;/font&gt;&lt;/div&gt;&lt;/div&gt;" style="text;html=1;align=right;verticalAlign=middle;whiteSpace=wrap;rounded=0;" vertex="1" parent="1">
          <mxGeometry x="101" y="323" width="60" height="30" as="geometry" />
        </mxCell>
        <mxCell id="-R15y1pQ6oSKtwiCRdAU-15" value="" style="endArrow=none;html=1;rounded=0;fontSize=12;startSize=8;endSize=8;curved=1;entryX=0;entryY=0;entryDx=0;entryDy=0;" edge="1" parent="1">
          <mxGeometry width="50" height="50" relative="1" as="geometry">
            <mxPoint x="160" y="359.67" as="sourcePoint" />
            <mxPoint x="180" y="359.67" as="targetPoint" />
          </mxGeometry>
        </mxCell>
        <mxCell id="-R15y1pQ6oSKtwiCRdAU-16" value="&lt;div style=&quot;line-height: 80%;&quot;&gt;&lt;div&gt;&lt;font style=&quot;font-size: 8px; line-height: 80%;&quot;&gt;Signal&lt;/font&gt;&lt;/div&gt;&lt;font style=&quot;font-size: 8px; line-height: 80%;&quot;&gt;(36 inc stations)&lt;/font&gt;&lt;/div&gt;" style="text;html=1;align=right;verticalAlign=middle;whiteSpace=wrap;rounded=0;" vertex="1" parent="1">
          <mxGeometry x="100" y="343" width="60" height="30" as="geometry" />
        </mxCell>
        <mxCell id="-R15y1pQ6oSKtwiCRdAU-18" value="" style="endArrow=none;html=1;rounded=0;fontSize=12;startSize=8;endSize=8;curved=1;entryX=0;entryY=0;entryDx=0;entryDy=0;" edge="1" parent="1">
          <mxGeometry width="50" height="50" relative="1" as="geometry">
            <mxPoint x="220" y="400" as="sourcePoint" />
            <mxPoint x="240" y="400" as="targetPoint" />
          </mxGeometry>
        </mxCell>
        <mxCell id="-R15y1pQ6oSKtwiCRdAU-19" value="" style="endArrow=none;html=1;rounded=0;fontSize=12;startSize=8;endSize=8;curved=1;entryX=0;entryY=0;entryDx=0;entryDy=0;" edge="1" parent="1">
          <mxGeometry width="50" height="50" relative="1" as="geometry">
            <mxPoint x="220" y="381" as="sourcePoint" />
            <mxPoint x="240" y="381" as="targetPoint" />
          </mxGeometry>
        </mxCell>
        <mxCell id="-R15y1pQ6oSKtwiCRdAU-20" value="" style="endArrow=none;html=1;rounded=0;fontSize=12;startSize=8;endSize=8;curved=1;entryX=0;entryY=0;entryDx=0;entryDy=0;" edge="1" parent="1">
          <mxGeometry width="50" height="50" relative="1" as="geometry">
            <mxPoint x="220" y="420" as="sourcePoint" />
            <mxPoint x="240" y="420" as="targetPoint" />
          </mxGeometry>
        </mxCell>
        <mxCell id="-R15y1pQ6oSKtwiCRdAU-21" value="" style="endArrow=none;html=1;rounded=0;fontSize=12;startSize=8;endSize=8;curved=1;entryX=0;entryY=0;entryDx=0;entryDy=0;" edge="1" parent="1">
          <mxGeometry width="50" height="50" relative="1" as="geometry">
            <mxPoint x="220" y="440" as="sourcePoint" />
            <mxPoint x="240" y="440" as="targetPoint" />
          </mxGeometry>
        </mxCell>
        <mxCell id="-R15y1pQ6oSKtwiCRdAU-22" value="" style="endArrow=none;html=1;rounded=0;fontSize=12;startSize=8;endSize=8;curved=1;entryX=0;entryY=0;entryDx=0;entryDy=0;" edge="1" parent="1">
          <mxGeometry width="50" height="50" relative="1" as="geometry">
            <mxPoint x="220" y="460" as="sourcePoint" />
            <mxPoint x="240" y="460" as="targetPoint" />
          </mxGeometry>
        </mxCell>
        <mxCell id="-R15y1pQ6oSKtwiCRdAU-23" value="" style="endArrow=none;html=1;rounded=0;fontSize=12;startSize=8;endSize=8;curved=1;entryX=0;entryY=0;entryDx=0;entryDy=0;" edge="1" parent="1">
          <mxGeometry width="50" height="50" relative="1" as="geometry">
            <mxPoint x="220" y="480" as="sourcePoint" />
            <mxPoint x="240" y="480" as="targetPoint" />
          </mxGeometry>
        </mxCell>
        <mxCell id="-R15y1pQ6oSKtwiCRdAU-24" value="&lt;font style=&quot;font-size: 8px;&quot;&gt;Fencing&lt;/font&gt;" style="text;html=1;align=center;verticalAlign=middle;whiteSpace=wrap;rounded=0;" vertex="1" parent="1">
          <mxGeometry x="195" y="358" width="60" height="30" as="geometry" />
        </mxCell>
        <mxCell id="-R15y1pQ6oSKtwiCRdAU-25" value="&lt;div style=&quot;line-height: 80%;&quot;&gt;&lt;font style=&quot;line-height: 80%; font-size: 6px;&quot;&gt;Proximity to urban hub&lt;/font&gt;&lt;/div&gt;" style="text;html=1;align=center;verticalAlign=middle;whiteSpace=wrap;rounded=0;" vertex="1" parent="1">
          <mxGeometry x="170" y="378" width="77" height="30" as="geometry" />
        </mxCell>
        <mxCell id="-R15y1pQ6oSKtwiCRdAU-26" value="&lt;div style=&quot;line-height: 80%;&quot;&gt;&lt;font style=&quot;line-height: 80%; font-size: 6px;&quot;&gt;Traditional colour signals&lt;/font&gt;&lt;/div&gt;" style="text;html=1;align=center;verticalAlign=middle;whiteSpace=wrap;rounded=0;" vertex="1" parent="1">
          <mxGeometry x="167" y="398" width="77" height="30" as="geometry" />
        </mxCell>
        <mxCell id="-R15y1pQ6oSKtwiCRdAU-29" value="&lt;div style=&quot;line-height: 80%;&quot;&gt;&lt;font style=&quot;line-height: 80%; font-size: 6px;&quot;&gt;Double track&lt;/font&gt;&lt;/div&gt;" style="text;html=1;align=center;verticalAlign=middle;whiteSpace=wrap;rounded=0;" vertex="1" parent="1">
          <mxGeometry x="183" y="417" width="77" height="30" as="geometry" />
        </mxCell>
        <mxCell id="-R15y1pQ6oSKtwiCRdAU-30" value="&lt;div style=&quot;line-height: 80%;&quot;&gt;&lt;font style=&quot;line-height: 80%; font-size: 6px;&quot;&gt;One non-station junction&lt;/font&gt;&lt;/div&gt;" style="text;html=1;align=center;verticalAlign=middle;whiteSpace=wrap;rounded=0;" vertex="1" parent="1">
          <mxGeometry x="168" y="438" width="77" height="30" as="geometry" />
        </mxCell>
        <mxCell id="-R15y1pQ6oSKtwiCRdAU-31" value="&lt;div&gt;&lt;font style=&quot;font-size: 6px;&quot;&gt;65km/h max speed&lt;/font&gt;&lt;/div&gt;" style="text;html=1;align=center;verticalAlign=middle;whiteSpace=wrap;rounded=0;fontSize=8;" vertex="1" parent="1">
          <mxGeometry x="174" y="460" width="77" height="30" as="geometry" />
        </mxCell>
        <mxCell id="-R15y1pQ6oSKtwiCRdAU-33" value="" style="endArrow=none;html=1;rounded=0;fontSize=12;startSize=8;endSize=8;curved=1;entryX=0;entryY=0;entryDx=0;entryDy=0;" edge="1" parent="1">
          <mxGeometry width="50" height="50" relative="1" as="geometry">
            <mxPoint x="400" y="320.09" as="sourcePoint" />
            <mxPoint x="420" y="320.09" as="targetPoint" />
          </mxGeometry>
        </mxCell>
        <mxCell id="-R15y1pQ6oSKtwiCRdAU-34" value="" style="endArrow=none;html=1;rounded=0;fontSize=12;startSize=8;endSize=8;curved=1;entryX=0;entryY=0;entryDx=0;entryDy=0;" edge="1" parent="1">
          <mxGeometry width="50" height="50" relative="1" as="geometry">
            <mxPoint x="400" y="339.91999999999996" as="sourcePoint" />
            <mxPoint x="420" y="339.91999999999996" as="targetPoint" />
          </mxGeometry>
        </mxCell>
        <mxCell id="-R15y1pQ6oSKtwiCRdAU-35" value="" style="endArrow=none;html=1;rounded=0;fontSize=12;startSize=8;endSize=8;curved=1;entryX=0;entryY=0;entryDx=0;entryDy=0;" edge="1" parent="1">
          <mxGeometry width="50" height="50" relative="1" as="geometry">
            <mxPoint x="400" y="359.76" as="sourcePoint" />
            <mxPoint x="420" y="359.76" as="targetPoint" />
          </mxGeometry>
        </mxCell>
        <mxCell id="-R15y1pQ6oSKtwiCRdAU-36" value="&lt;div align=&quot;left&quot; style=&quot;line-height: 80%;&quot;&gt;&lt;div&gt;&lt;font style=&quot;font-size: 8px; line-height: 80%;&quot;&gt;Bridge&lt;/font&gt;&lt;/div&gt;&lt;/div&gt;" style="text;html=1;align=left;verticalAlign=middle;whiteSpace=wrap;rounded=0;" vertex="1" parent="1">
          <mxGeometry x="418" y="303" width="60" height="30" as="geometry" />
        </mxCell>
        <mxCell id="-R15y1pQ6oSKtwiCRdAU-38" value="&lt;div align=&quot;left&quot; style=&quot;line-height: 80%;&quot;&gt;&lt;div&gt;&lt;font style=&quot;font-size: 8px; line-height: 80%;&quot;&gt;Overhead driveway&lt;/font&gt;&lt;/div&gt;&lt;/div&gt;" style="text;html=1;align=left;verticalAlign=middle;whiteSpace=wrap;rounded=0;" vertex="1" parent="1">
          <mxGeometry x="419" y="323" width="81" height="30" as="geometry" />
        </mxCell>
        <mxCell id="-R15y1pQ6oSKtwiCRdAU-40" value="&lt;div align=&quot;left&quot; style=&quot;line-height: 80%;&quot;&gt;&lt;div&gt;&lt;font style=&quot;font-size: 8px; line-height: 80%;&quot;&gt;Population hotspot&lt;/font&gt;&lt;/div&gt;&lt;/div&gt;" style="text;html=1;align=left;verticalAlign=middle;whiteSpace=wrap;rounded=0;" vertex="1" parent="1">
          <mxGeometry x="420" y="342" width="81" height="30" as="geometry" />
        </mxCell>
        <mxCell id="-R15y1pQ6oSKtwiCRdAU-41" value="" style="endArrow=none;html=1;rounded=0;fontSize=12;startSize=8;endSize=8;curved=1;entryX=0;entryY=0;entryDx=0;entryDy=0;" edge="1" parent="1">
          <mxGeometry width="50" height="50" relative="1" as="geometry">
            <mxPoint x="349" y="380" as="sourcePoint" />
            <mxPoint x="369" y="380" as="targetPoint" />
          </mxGeometry>
        </mxCell>
        <mxCell id="-R15y1pQ6oSKtwiCRdAU-42" value="" style="endArrow=none;html=1;rounded=0;fontSize=12;startSize=8;endSize=8;curved=1;entryX=0;entryY=0;entryDx=0;entryDy=0;" edge="1" parent="1">
          <mxGeometry width="50" height="50" relative="1" as="geometry">
            <mxPoint x="349" y="399.8299999999999" as="sourcePoint" />
            <mxPoint x="369" y="399.8299999999999" as="targetPoint" />
          </mxGeometry>
        </mxCell>
        <mxCell id="-R15y1pQ6oSKtwiCRdAU-43" value="" style="endArrow=none;html=1;rounded=0;fontSize=12;startSize=8;endSize=8;curved=1;entryX=0;entryY=0;entryDx=0;entryDy=0;" edge="1" parent="1">
          <mxGeometry width="50" height="50" relative="1" as="geometry">
            <mxPoint x="349" y="419.66999999999996" as="sourcePoint" />
            <mxPoint x="369" y="419.66999999999996" as="targetPoint" />
          </mxGeometry>
        </mxCell>
        <mxCell id="-R15y1pQ6oSKtwiCRdAU-44" value="" style="endArrow=none;html=1;rounded=0;fontSize=12;startSize=8;endSize=8;curved=1;entryX=0;entryY=0;entryDx=0;entryDy=0;" edge="1" parent="1">
          <mxGeometry width="50" height="50" relative="1" as="geometry">
            <mxPoint x="350" y="440" as="sourcePoint" />
            <mxPoint x="370" y="440" as="targetPoint" />
          </mxGeometry>
        </mxCell>
        <mxCell id="-R15y1pQ6oSKtwiCRdAU-45" value="" style="endArrow=none;html=1;rounded=0;fontSize=12;startSize=8;endSize=8;curved=1;entryX=0;entryY=0;entryDx=0;entryDy=0;" edge="1" parent="1">
          <mxGeometry width="50" height="50" relative="1" as="geometry">
            <mxPoint x="350" y="459.8299999999999" as="sourcePoint" />
            <mxPoint x="370" y="459.8299999999999" as="targetPoint" />
          </mxGeometry>
        </mxCell>
        <mxCell id="-R15y1pQ6oSKtwiCRdAU-46" value="" style="endArrow=none;html=1;rounded=0;fontSize=12;startSize=8;endSize=8;curved=1;entryX=0;entryY=0;entryDx=0;entryDy=0;" edge="1" parent="1">
          <mxGeometry width="50" height="50" relative="1" as="geometry">
            <mxPoint x="350" y="479.66999999999996" as="sourcePoint" />
            <mxPoint x="370" y="479.66999999999996" as="targetPoint" />
          </mxGeometry>
        </mxCell>
        <mxCell id="-R15y1pQ6oSKtwiCRdAU-47" value="&lt;div align=&quot;left&quot; style=&quot;line-height: 80%;&quot;&gt;&lt;div&gt;&lt;font style=&quot;font-size: 8px; line-height: 80%;&quot;&gt;Lighting&lt;/font&gt;&lt;/div&gt;&lt;/div&gt;" style="text;html=1;align=left;verticalAlign=middle;whiteSpace=wrap;rounded=0;" vertex="1" parent="1">
          <mxGeometry x="339" y="354" width="60" height="30" as="geometry" />
        </mxCell>
        <mxCell id="-R15y1pQ6oSKtwiCRdAU-49" value="&lt;div align=&quot;left&quot; style=&quot;line-height: 80%;&quot;&gt;&lt;div&gt;&lt;font style=&quot;font-size: 8px; line-height: 80%;&quot;&gt;Weather&lt;/font&gt;&lt;/div&gt;&lt;/div&gt;" style="text;html=1;align=left;verticalAlign=middle;whiteSpace=wrap;rounded=0;" vertex="1" parent="1">
          <mxGeometry x="336" y="374" width="60" height="30" as="geometry" />
        </mxCell>
        <mxCell id="-R15y1pQ6oSKtwiCRdAU-50" value="&lt;div align=&quot;left&quot; style=&quot;line-height: 80%;&quot;&gt;&lt;div&gt;&lt;font style=&quot;font-size: 8px; line-height: 80%;&quot;&gt;Seasons&lt;/font&gt;&lt;/div&gt;&lt;/div&gt;" style="text;html=1;align=left;verticalAlign=middle;whiteSpace=wrap;rounded=0;" vertex="1" parent="1">
          <mxGeometry x="336" y="394" width="60" height="30" as="geometry" />
        </mxCell>
        <mxCell id="-R15y1pQ6oSKtwiCRdAU-51" value="&lt;div align=&quot;left&quot; style=&quot;line-height: 80%;&quot;&gt;&lt;div&gt;&lt;font style=&quot;font-size: 8px; line-height: 80%;&quot;&gt;Time of Day&lt;/font&gt;&lt;/div&gt;&lt;/div&gt;" style="text;html=1;align=left;verticalAlign=middle;whiteSpace=wrap;rounded=0;" vertex="1" parent="1">
          <mxGeometry x="324" y="412" width="60" height="30" as="geometry" />
        </mxCell>
        <mxCell id="-R15y1pQ6oSKtwiCRdAU-52" value="&lt;div style=&quot;line-height: 80%;&quot;&gt;&lt;div&gt;&lt;font style=&quot;font-size: 8px; line-height: 80%;&quot;&gt;Embankment quality&lt;/font&gt;&lt;/div&gt;&lt;/div&gt;" style="text;html=1;align=right;verticalAlign=middle;whiteSpace=wrap;rounded=0;" vertex="1" parent="1">
          <mxGeometry x="311" y="433" width="60" height="30" as="geometry" />
        </mxCell>
        <mxCell id="-R15y1pQ6oSKtwiCRdAU-53" value="&lt;div style=&quot;line-height: 80%;&quot;&gt;&lt;div&gt;&lt;font style=&quot;font-size: 8px; line-height: 80%;&quot;&gt;Tunnel quality&lt;/font&gt;&lt;/div&gt;&lt;/div&gt;" style="text;html=1;align=right;verticalAlign=middle;whiteSpace=wrap;rounded=0;" vertex="1" parent="1">
          <mxGeometry x="311" y="454" width="60" height="30" as="geometry" />
        </mxCell>
      </root>
    </mxGraphModel>
  </diagram>
</mxfile>
